# AST/ASF file generated using VICON BodyLanguage
# -----------------------------------------------
:version 1.10
:name VICON
:units
  mass 1.0
  length 0.45
  angle deg
:documentation
   .ast/.asf automatically generated from VICON data using
   VICON BodyBuilder and BodyLanguage model FoxedUp or BRILLIANT.MOD
:root
   order TX TY TZ RX RY RZ
   axis XYZ
   position 0 0 0  
   orientation 0 -0 0 
:bonedata
  begin
     id 1 
     name lhipjoint
     direction 0.515797 -0.759363 0.396637 
     length 2.47888 
     axis 0 -0 0  XYZ
  end
  begin
     id 2 
     name lfemur
     direction 0.34202 -0.939693 0  
     length 6.81885  
     axis 0 -0 20  XYZ
    dof rx ry rz
    limits (-160.0 20.0)
           (-70.0 70.0)
           (-60.0 70.0)
  end
  begin
     id 3 
     name ltibia
     direction 0.342037 -0.939687 0   
     length 7.89258   
     axis 0 -0 20   XYZ
    dof rx
    limits (-10.0 170.0)
  end
  begin
     id 4 
     name lfoot
     direction 0.173497 -0.476678 0.861787   
     length 2.51543   
     axis -90 -1.13533e-015 20   XYZ
    dof rx rz
    limits (-45.0 90.0)
           (-70.0 20.0)
  end
  begin
     id 5 
     name ltoes
     direction 1.53564e-011 -4.21897e-011 1   
     length 1.21388   
     axis -90 -1.13533e-015 20   XYZ
    dof rx
    limits (-90.0 20.0)
  end
  begin
     id 6 
     name rhipjoint
     direction -0.489454 -0.772941 0.403729   
     length 2.43534  
     axis 0 -0 0  XYZ 
  end
  begin
     id 7 
     name rfemur
     direction -0.34202 -0.939693 0   
     length 7.10357   
     axis 0 -0 -20   XYZ
    dof rx ry rz
    limits (-160.0 20.0)
           (-70.0 70.0)
           (-70.0 60.0)
  end
  begin
     id 8 
     name rtibia
     direction -0.34202 -0.939693 0   
     length 9.16127   
     axis 0 -0 -20   XYZ
    dof rx
    limits (-10.0 170.0)
 end
 begin
     id 9 
     name rfoot
     direction -0.270974 -0.748671 0.605033   
     length 1.74894  
     axis -90 1.13533e-015 -20   XYZ
    dof rx rz
    limits (-45.0 90.0)
           (-20.0 70.0)
  end
  begin
     id 10 
     name rtoes
     direction -1.53557e-011 -4.21759e-011 1   
     length 0.787585   
     axis -90 1.13533e-015 -20   XYZ
    dof rx
    limits (-90.0 20.0)
  end
  begin
     id 11 
     name lowerback
     direction -0.0140249 0.999561 0.0260968   
     length 2.16963   
     axis 0 -0 0   XYZ
    dof rx ry rz
    limits (-20.0 45.0)
           (-30.0 30.0)
           (-30.0 30.0)
  end
  begin
     id 12 
     name upperback
     direction 0.00860018 0.999959 -0.002711   
     length 2.1726   
     axis 0 -0 0   XYZ
    dof rx ry rz
    limits (-20.0 45.0)
           (-30.0 30.0)
           (-30.0 30.0)
  end
  begin
     id 13 
     name thorax
     direction 0.015211 0.999782 -0.0143191   
     length 2.17061   
     axis 0 -0 0   XYZ
    dof rx ry rz
    limits (-20.0 45.0)
           (-30.0 30.0)
           (-30.0 30.0)
  end
  begin
     id 14 
     name lowerneck
     direction -0.0140143 0.999447 0.030145   
     length 2.26749   
     axis 0 -0 0   XYZ
    dof rx ry rz
    limits (-20.0 45.0)
           (-30.0 30.0)
           (-30.0 30.0)
  end
  begin
     id 15 
     name upperneck
     direction 0.118062 0.961438 -0.248392   
     length 2.22728   
     axis 0 -0 0   XYZ
    dof rx ry rz
    limits (-20.0 45.0)
           (-30.0 30.0)
           (-30.0 30.0)
  end
  begin
     id 16
     name head
     direction 0.0431885 0.9954 -0.085514  
     length 2.28786  
     axis 0 -0 0   XYZ
    dof rx ry rz
    limits (-20.0 45.0)
           (-30.0 30.0)
           (-30.0 30.0)
  end
  begin
     id 17 
     name lclavicle
     direction 0.912126 0.409548 0.0172323  
     length 4.31571  
     axis 0 -0 0   XYZ
    dof ry rz
    limits (-20.0 10.0)
           (0.0 20.0)
  end
  begin
     id 18 
     name lhumerus
     direction 1 -4.48977e-011 1.93091e-027   
     length 5.13658   
     axis 180 -30 -90   XYZ
    dof rx ry rz
    limits (-60.0 90.0)
           (-90.0 90.0)
           (-90.0 90.0)
  end
  begin
     id 19
     name lradius
     direction 1 -4.48916e-011 6.84018e-027   
     length 3.22473   
     axis 180 -30 -90   XYZ
    dof rx
    limits (-10.0 170.0)
  end
  begin
     id 20
     name lwrist
     direction 1 -4.48987e-011 7.01981e-027   
     length 1.61236   
     axis -4.37994e-015 90 90   XYZ
    dof ry
    limits (-180.0 0.0)
 end
  begin
     id 21 
     name lhand
     direction 1 -4.49037e-011 1.40335e-026   
     length 0.936406   
     axis -8.96029e-015 90 90   XYZ
    dof rx rz
    limits (-90.0 90.0)
           (-45.0 45.0)
  end
  begin
     id 22 
     name lfingers
     direction 1 -4.48886e-011 2.8104e-026   
     length 0.754955   
     axis -1.79203e-014 90 90   XYZ
    dof rx
    limits (0.0 90.0)
  end
  begin
     id 23
     name lthumb
     direction 0.707107 -6.34937e-011 0.707107   
     length 1.08397   
     axis -90 45 -4.48555e-014   XYZ
    dof rx rz
    limits (-45.0 45.0)
           (-45.0 45.0)
  end
  begin
     id 24 
     name rclavicle
     direction -0.947962 0.317997 0.0156638   
     length 4.86918  
     axis 0 -0 0   XYZ 
    dof ry rz
    limits (-10.0 20.0)
           (-20.0 0.0)
  end
  begin
     id 25 
     name rhumerus
     direction -1 -4.48951e-011 2.80534e-018  
     length 5.60911   
     axis 180 30 90   XYZ
    dof rx ry rz
    limits (-90.0 60.0)
           (-90.0 90.0)
           (-90.0 90.0)
  end
  begin
     id 26 
     name rradius
     direction -1 -4.4898e-011 2.11315e-027   
     length 3.38704   
     axis 180 30 90   XYZ
    dof rx
    limits (-10.0 170.0)
  end
  begin
     id 27 
     name rwrist
     direction -1 -4.48933e-011 7.02314e-027   
     length 1.69352   
     axis -4.37994e-015 -90 -90   XYZ
    dof ry
    limits (-180.0 0.0)
  end
  begin
     id 28
     name rhand
     direction -1 -4.48937e-011 1.40458e-026   
     length 0.755878   
     axis -8.96029e-015 -90 -90   XYZ
    dof rx rz
    limits (-90.0 90.0)
           (-45.0 45.0)
  end
  begin
     id 29
     name rfingers
     direction -1 -4.4901e-011 2.80737e-026   
     length 0.609409   
     axis -1.79203e-014 -90 -90   XYZ
    dof rx
    limits (0.0 90.0)
  end
  begin
     id 30
     name rthumb
     direction -0.707107 -6.34968e-011 0.707107   
     length 0.874992   
     axis -90 -45 4.48555e-014   XYZ
    dof rx rz
    limits (-45.0 45.0)
           (-45.0 45.0)
  end
:hierarchy
  begin
    root lhipjoint rhipjoint lowerback
    lhipjoint lfemur
    lfemur ltibia
    ltibia lfoot
    lfoot ltoes
    rhipjoint rfemur
    rfemur rtibia
    rtibia rfoot
    rfoot rtoes
    lowerback upperback
    upperback thorax
    thorax lowerneck lclavicle rclavicle
    lowerneck upperneck
    upperneck head
    lclavicle lhumerus
    lhumerus lradius
    lradius lwrist
    lwrist lhand lthumb
    lhand lfingers
    rclavicle rhumerus
    rhumerus rradius
    rradius rwrist
    rwrist rhand rthumb
    rhand rfingers
  end

#!OML:ASF C:\ViconDB\ViconDB\414\Spring2016\041811\Spring2016.ASF
:FULLY-SPECIFIED
:DEGREES
31
root 9.59406 18.2265 1.81662 -175.617 -2.76971 -178.037
lowerback -5.37851 1.47454 -3.27885
upperback -0.405838 2.13445 0.0890139
thorax 2.47271 1.01767 2.08625
lowerneck -11.6686 1.99189 -3.45324
upperneck 21.4187 0.0494608 10.7269
head 8.55313 0.42721 4.16994
rclavicle 2.84014e-014 -2.38542e-015
rhumerus -39.1013 -15.2401 -91.114
rradius 35.449
rwrist 38.4518
rhand -34.8459 -13.6608
rfingers 7.12502
rthumb -7.99602 -43.4896
lclavicle 2.84014e-014 -2.38542e-015
lhumerus -36.7124 -1.23679 89.4824
lradius 23.367
lwrist -37.3344
lhand -27.4719 15.7381
lfingers 7.12502
lthumb -0.875869 45.7161
rfemur 167.92 65.1514 -162.763
rtibia 31.087
rfoot -75.6434 -43.5286
rtoes -8.98507e-014
lfemur -8.46536 -7.19193 -20.4204
ltibia 24.8444
lfoot -22.2328 3.87721
ltoes 3.18428e-014
32
root 9.59192 18.2268 1.81531 -175.531 -2.84926 -178.018
lowerback -5.37973 1.46331 -3.21622
upperback -0.445992 2.11431 0.0703006
thorax 2.4361 1.00901 2.02975
lowerneck -11.5808 1.9631 -3.36746
upperneck 21.3378 0.0112735 10.6711
head 8.51367 0.407963 4.12786
rclavicle 1.36664e-015 1.59028e-014
rhumerus -39.1973 -15.1821 -91.0847
rradius 35.422
rwrist 38.5245
rhand -34.9389 -13.7642
rfingers 7.12502
rthumb -8.08576 -43.5895
lclavicle 1.36664e-015 1.59028e-014
lhumerus -36.6789 -1.13519 89.3856
lradius 23.2613
lwrist -37.6052
lhand -27.484 15.8209
lfingers 7.12502
lthumb -0.887593 45.7988
rfemur 168.162 65.4547 -162.54
rtibia 31.0763
rfoot -75.9019 -43.5186
rtoes -1.12115e-013
lfemur -8.59474 -7.25851 -20.3976
ltibia 24.8898
lfoot -22.2514 3.8611
ltoes -1.9133e-014
33
root 9.59042 18.2257 1.81017 -175.462 -2.92587 -178.013
lowerback -5.44143 1.44797 -3.18033
upperback -0.42265 2.09459 0.0809027
thorax 2.49676 0.998331 2.02162
lowerneck -11.5773 1.92671 -3.42123
upperneck 21.238 -0.00264655 10.6522
head 8.48008 0.398746 4.12656
rclavicle -1.40764e-014 -1.51076e-014
rhumerus -39.1884 -15.1423 -91.0282
rradius 35.3878
rwrist 38.5435
rhand -34.9189 -13.7591
rfingers 7.12502
rthumb -8.0665 -43.5852
lclavicle -1.40764e-014 -1.51076e-014
lhumerus -36.5662 -0.857703 89.3386
lradius 23.2315
lwrist -37.6014
lhand -27.5113 15.6862
lfingers 7.12502
lthumb -0.91392 45.664
rfemur 168.321 65.7322 -162.395
rtibia 31.0591
rfoot -76.1349 -43.5562
rtoes 7.15625e-015
lfemur -8.70055 -7.26303 -20.3805
ltibia 24.939
lfoot -22.2535 3.79906
ltoes 3.85642e-014
34
root 9.59011 18.2245 1.8058 -175.434 -3.03708 -178.052
lowerback -5.43577 1.4208 -3.22676
upperback -0.394052 2.06218 0.0880295
thorax 2.52308 0.981184 2.05307
lowerneck -11.6446 1.89673 -3.44843
upperneck 21.2306 -0.026138 10.6319
head 8.49199 0.387911 4.12323
rclavicle 1.05977e-014 0
rhumerus -39.1501 -15.0573 -90.9927
rradius 35.3475
rwrist 38.3211
rhand -34.8865 -13.8242
rfingers 7.12502
rthumb -8.03525 -43.6515
lclavicle 1.05977e-014 0
lhumerus -36.4671 -0.805761 89.3832
lradius 23.2111
lwrist -37.5026
lhand -27.4813 15.6905
lfingers 7.12502
lthumb -0.884911 45.6684
rfemur 168.304 65.8779 -162.46
rtibia 31.0413
rfoot -76.1053 -43.608
rtoes -6.59965e-014
lfemur -8.75172 -7.25262 -20.4066
ltibia 24.9793
lfoot -22.2656 3.67044
ltoes 2.54693e-014
35
root 9.58419 18.2245 1.80398 -175.322 -3.03938 -178.033
lowerback -5.5045 1.43774 -3.13821
upperback -0.388468 2.08182 0.0899734
thorax 2.56926 0.991006 2.00914
lowerneck -11.7274 1.85834 -3.54546
upperneck 21.1945 -0.03178 10.5944
head 8.49497 0.381248 4.12755
rclavicle -3.11843e-015 -2.78299e-015
rhumerus -39.1688 -15.1586 -90.8955
rradius 35.3223
rwrist 38.4229
rhand -34.8101 -13.7075
rfingers 7.12502
rthumb -7.96146 -43.5376
lclavicle -3.11843e-015 -2.78299e-015
lhumerus -36.3853 -0.754419 89.4141
lradius 23.192
lwrist -37.5326
lhand -27.4823 15.6887
lfingers 7.12502
lthumb -0.885895 45.6667
rfemur 168.583 65.7332 -162.238
rtibia 31.0135
rfoot -75.8806 -43.701
rtoes 5.08889e-014
lfemur -8.90717 -7.08733 -20.4088
ltibia 25.0152
lfoot -22.227 3.59845
ltoes -3.51849e-014
36
root 9.57979 18.2252 1.79986 -175.247 -3.13048 -178.045
lowerback -5.51504 1.42381 -3.07464
upperback -0.4008 2.05981 0.0570944
thorax 2.56711 0.980823 1.93818
lowerneck -11.6175 1.83091 -3.59393
upperneck 21.0535 -0.0606607 10.6639
head 8.42874 0.367432 4.15064
rclavicle 2.57426e-014 -1.19271e-015
rhumerus -39.2094 -15.2178 -90.8229
rradius 35.2632
rwrist 38.4955
rhand -34.8239 -13.637
rfingers 7.12502
rthumb -7.97479 -43.4666
lclavicle 2.57426e-014 -1.19271e-015
lhumerus -36.433 -0.667753 89.3861
lradius 23.258
lwrist -37.6096
lhand -27.4465 15.6852
lfingers 7.12502
lthumb -0.85136 45.6633
rfemur 168.659 65.4977 -162.239
rtibia 30.9738
rfoot -75.4077 -43.8389
rtoes 3.65764e-014
lfemur -9.01857 -6.92685 -20.4119
ltibia 25.0449
lfoot -22.165 3.35651
ltoes -5.44918e-014
37
root 9.57696 18.2253 1.79569 -175.21 -3.24038 -178.053
lowerback -5.49599 1.40793 -3.08226
upperback -0.395536 2.03857 0.07069
thorax 2.56229 0.970297 1.95444
lowerneck -11.5948 1.83053 -3.58966
upperneck 21.0284 -0.0754049 10.721
head 8.4172 0.364669 4.16674
rclavicle -5.2181e-016 1.27222e-014
rhumerus -39.2677 -15.2649 -90.6673
rradius 35.229
rwrist 38.7447
rhand -34.6811 -13.6227
rfingers 7.12502
rthumb -7.83694 -43.4575
lclavicle -5.2181e-016 1.27222e-014
lhumerus -36.4046 -0.716291 89.4928
lradius 23.2849
lwrist -37.4459
lhand -27.4488 15.6599
lfingers 7.12502
lthumb -0.853555 45.6379
rfemur 168.587 65.0838 -162.379
rtibia 30.9143
rfoot -74.674 -44.0471
rtoes 6.36111e-014
lfemur -9.08028 -7.08064 -20.3963
ltibia 25.079
lfoot -22.1965 3.25523
ltoes 1.06101e-014
38
root 9.57158 18.2243 1.79329 -175.212 -3.35375 -178.007
lowerback -5.39128 1.39293 -3.03457
upperback -0.385131 2.01261 0.108375
thorax 2.51612 0.95904 1.96169
lowerneck -11.6324 1.82408 -3.65038
upperneck 21.0007 -0.0750628 10.7713
head 8.41425 0.367526 4.19459
rclavicle 3.15819e-014 1.98785e-014
rhumerus -39.305 -15.3597 -90.4641
rradius 35.1684
rwrist 39.0743
rhand -34.7487 -13.7793
rfingers 7.12502
rthumb -7.90218 -43.6116
lclavicle 3.15819e-014 1.98785e-014
lhumerus -36.35 -0.819093 89.6592
lradius 23.3187
lwrist -37.2325
lhand -27.434 15.7642
lfingers 7.12502
lthumb -0.839235 45.7423
rfemur 168.398 64.401 -162.586
rtibia 30.8408
rfoot -73.586 -44.3284
rtoes -7.15625e-015
lfemur -9.10577 -7.0766 -20.3494
ltibia 25.0988
lfoot -22.1803 3.13713
ltoes -1.03592e-013
39
root 9.56545 18.2226 1.79123 -175.232 -3.45086 -177.979
lowerback -5.31687 1.38402 -3.00028
upperback -0.344888 1.99776 0.146744
thorax 2.5166 0.95224 1.97947
lowerneck -11.5511 1.77011 -3.73902
upperneck 20.8629 -0.0984489 10.7322
head 8.35405 0.347075 4.18893
rclavicle -1.52816e-015 -2.78299e-015
rhumerus -39.3018 -15.3889 -90.292
rradius 35.0767
rwrist 39.2289
rhand -34.7974 -13.7479
rfingers 7.12502
rthumb -7.94919 -43.5784
lclavicle -1.52816e-015 -2.78299e-015
lhumerus -36.2915 -0.788624 89.8032
lradius 23.3646
lwrist -37.1347
lhand -27.4244 15.8213
lfingers 7.12502
lthumb -0.830003 45.7995
rfemur 168.135 63.4093 -162.905
rtibia 30.7537
rfoot -72.1139 -44.6317
rtoes 6.99722e-014
lfemur -9.10077 -7.13119 -20.3356
ltibia 25.1178
lfoot -22.191 3.08191
ltoes 4.80562e-014
40
root 9.55825 18.2222 1.78898 -175.244 -3.51357 -177.955
lowerback -5.22017 1.39799 -2.93277
upperback -0.324351 2.01074 0.147165
thorax 2.4852 0.960324 1.94043
lowerneck -11.5424 1.72049 -3.70632
upperneck 20.8145 -0.163017 10.7108
head 8.34212 0.317535 4.16802
rclavicle 9.44227e-015 -6.75868e-015
rhumerus -39.33 -15.4845 -90.1402
rradius 35.0001
rwrist 39.3021
rhand -34.8338 -13.7082
rfingers 7.12502
rthumb -7.98437 -43.5374
lclavicle 9.44227e-015 -6.75868e-015
lhumerus -36.3041 -0.889942 89.9432
lradius 23.479
lwrist -37.007
lhand -27.4278 15.8598
lfingers 7.12502
lthumb -0.833294 45.8379
rfemur 167.868 62.0547 -163.247
rtibia 30.6648
rfoot -70.1825 -44.9806
rtoes 1.03368e-013
lfemur -9.08565 -7.21016 -20.3394
ltibia 25.1109
lfoot -22.1972 3.09933
ltoes -8.24956e-014
41
root 9.55059 18.2211 1.78829 -175.292 -3.59563 -177.921
lowerback -5.07081 1.41226 -2.85668
upperback -0.278992 2.0233 0.15197
thorax 2.45009 0.968459 1.89991
lowerneck -11.5383 1.69211 -3.7252
upperneck 20.7293 -0.18758 10.7284
head 8.31478 0.308026 4.17249
rclavicle -2.17296e-014 2.78299e-015
rhumerus -39.286 -15.4598 -90.0024
rradius 34.8924
rwrist 39.1585
rhand -34.8749 -13.5907
rfingers 7.12502
rthumb -8.02407 -43.4183
lclavicle -2.17296e-014 2.78299e-015
lhumerus -36.304 -1.06395 90.1286
lradius 23.62
lwrist -36.7358
lhand -27.4735 15.8958
lfingers 7.12502
lthumb -0.877368 45.8737
rfemur 167.524 60.5052 -163.65
rtibia 30.5711
rfoot -67.9116 -45.4009
rtoes 1.31198e-013
lfemur -9.04695 -7.15091 -20.3298
ltibia 25.1057
lfoot -22.1591 2.98842
ltoes 7.62836e-015
42
root 9.5449 18.2186 1.78411 -175.406 -3.78049 -177.931
lowerback -4.85834 1.385 -2.83296
upperback -0.234977 1.98246 0.114068
thorax 2.38073 0.950067 1.83933
lowerneck -11.4989 1.6702 -3.61914
upperneck 20.6304 -0.247081 10.7875
head 8.2804 0.291039 4.1648
rclavicle -2.44257e-014 3.29983e-014
rhumerus -39.339 -15.5805 -89.9084
rradius 34.8168
rwrist 39.2457
rhand -34.9714 -13.6831
rfingers 7.12502
rthumb -8.11718 -43.5072
lclavicle -2.44257e-014 3.29983e-014
lhumerus -36.3334 -1.3372 90.2989
lradius 23.7794
lwrist -36.2732
lhand -27.4682 15.9939
lfingers 7.12502
lthumb -0.872254 45.9719
rfemur 166.977 58.861 -164.262
rtibia 30.4818
rfoot -65.3221 -45.8462
rtoes 2.06736e-014
lfemur -8.90004 -7.15016 -20.3571
ltibia 25.0711
lfoot -22.1143 2.78508
ltoes -5.80948e-014
